# Blender 4.0.1
# www.blender.org
mtllib untitled.mtl
o Plane
v -1.000000 0.000000 0.000000
v 1.000000 0.000000 2.000000
v 1.000000 0.000000 -2.000000
v -1.000000 0.500000 0.000000
v 1.000000 0.500000 2.000000
v 1.000000 0.500000 -2.000000
vn -0.0000 -1.0000 -0.0000
vn -0.0000 1.0000 -0.0000
vn -0.7071 -0.0000 -0.7071
vn 1.0000 -0.0000 -0.0000
vn -0.7071 -0.0000 0.7071
vt 0.000000 0.000000
vt 1.000000 1.000000
vt 1.000000 0.000000
s 0
f 1/1/1 3/2/1 2/3/1
f 4/1/2 5/3/2 6/2/2
f 3/2/3 1/1/3 4/1/3 6/2/3
f 2/3/4 3/2/4 6/2/4 5/3/4
f 1/1/5 2/3/5 5/3/5 4/1/5
